# Blender v2.76 (sub 0) OBJ File: ''
# www.blender.org
o GeoSphere003
v 0.497708 1.284775 0.381861
v 0.513972 1.201537 0.601597
v 0.717443 1.201537 0.365598
v 0.697426 1.000586 0.627981
v 0.812963 1.000586 0.414673
v 0.743829 1.000586 0.182144
v 0.530521 1.000586 0.066607
v 0.481445 1.201537 0.162125
v 0.277973 1.201537 0.398125
v 0.297992 1.000586 0.135741
v 0.182453 1.000586 0.349049
v 0.251588 1.000586 0.581578
v 0.464896 1.000586 0.697116
v 0.497708 0.716395 0.381861
v 0.558873 0.799633 0.170185
v 0.709385 0.799633 0.443027
v 0.286032 0.799633 0.320696
v 0.436543 0.799633 0.593537
vn 0.356900 0.882000 0.307700
vn 0.664900 0.654300 0.360200
vn 0.894200 0.360100 -0.265900
vn 0.579500 0.461000 -0.672100
vn -0.356900 0.882000 -0.307700
vn -0.664900 0.654300 -0.360200
vn -0.894200 0.360100 0.265900
vn -0.579500 0.461000 0.672100
vn 0.412600 -0.882000 -0.227600
vn -0.215500 -0.654300 -0.724900
vn 0.444300 -0.360100 -0.820300
vn -0.412600 -0.882000 0.227600
vn 0.215500 -0.654300 0.724900
vn -0.444300 -0.360100 0.820300
vn 0.672100 0.461000 0.579500
vn 0.307700 0.882000 -0.356900
vn 0.360200 0.654300 -0.664900
vn -0.265900 0.360100 -0.894200
vn -0.672100 0.461000 -0.579500
vn -0.307700 0.882000 0.356900
vn -0.360200 0.654300 0.664900
vn 0.265900 0.360100 0.894200
vn 0.724900 -0.654300 -0.215500
vn 0.820300 -0.360100 0.444300
vn -0.227600 -0.882000 -0.412600
vn -0.724900 -0.654300 0.215500
vn -0.820300 -0.360100 -0.444300
vn 0.227600 -0.882000 0.412600
vn 0.777000 -0.461000 -0.428600
vn -0.428600 -0.461000 -0.777000
vn -0.777000 -0.461000 0.428600
vn 0.428600 -0.461000 0.777000
s 1
f 1//1 2//1 3//1
f 2//2 4//2 5//2
f 3//3 5//3 6//3
f 3//4 7//4 8//4
f 1//5 8//5 9//5
f 8//6 10//6 11//6
f 9//7 11//7 12//7
f 9//8 13//8 2//8
f 14//9 15//9 16//9
f 17//10 10//10 7//10
f 15//11 7//11 6//11
f 14//12 18//12 17//12
f 16//13 4//13 13//13
f 18//14 13//14 12//14
f 2//15 5//15 3//15
f 1//16 3//16 8//16
f 3//17 6//17 7//17
f 8//18 7//18 10//18
f 8//19 11//19 9//19
f 1//20 9//20 2//20
f 9//21 12//21 13//21
f 2//22 13//22 4//22
f 15//23 6//23 5//23
f 16//24 5//24 4//24
f 14//25 17//25 15//25
f 18//26 12//26 11//26
f 17//27 11//27 10//27
f 14//28 16//28 18//28
f 15//29 5//29 16//29
f 17//30 7//30 15//30
f 18//31 11//31 17//31
f 16//32 13//32 18//32
