# Blender v2.78 (sub 0) OBJ File: ''
# www.blender.org
mtllib cloudtex.mtl
v 1.154484 -0.684936 -0.215484
v 0.826702 -1.050882 -0.460812
v 1.224633 -0.731664 -0.703742
v 0.337259 -0.898739 -0.724086
v 0.311640 -0.732821 -0.240513
v 0.219280 -0.104865 -0.530427
v 0.840004 -0.581756 -1.146413
v 0.264471 -0.138247 -0.924367
v 1.313301 -0.128896 -0.551246
v 0.721332 0.181372 -0.530185
v 0.860633 -0.003664 -0.968203
v 0.467918 0.085465 -0.354057
v 0.573572 -0.694170 -0.009183
v -0.494969 0.476278 0.481049
v -0.650347 0.007152 -0.158389
v -0.140572 0.476278 -0.156125
v -0.896123 0.221173 0.349002
v -1.261759 0.238643 -0.081432
v -0.758420 0.326368 -0.611913
v -1.103535 0.852393 -0.555255
v -0.565395 0.735933 -0.668881
v -1.285278 0.849848 0.228270
v -0.717846 1.040832 0.395254
v -0.862191 1.268390 -0.158389
v -0.250780 1.036900 -0.081432
v -1.376877 0.605911 -0.081432
v 0.559025 -0.501001 0.600754
v 0.802367 -0.351330 0.884580
v 0.364288 -0.351330 0.919893
v 0.314684 -0.431589 0.600754
v 0.483521 -0.431590 0.368374
v 0.954377 -0.280579 0.600754
v 0.914102 0.090013 0.930910
v 0.354753 0.090013 1.040477
v 0.143326 -0.244086 0.600754
v 0.117006 -0.036235 0.744373
v 0.974724 0.171615 0.600754
v 0.878247 0.216034 0.357821
v 0.678202 0.429979 0.687341
v 0.361350 0.359120 0.457136
v 0.361350 0.359120 0.744372
v 0.163673 0.208109 0.600754
v 1.001044 -0.036235 0.457136
v 0.756700 -0.431590 0.457137
v -0.569386 -0.448212 0.444520
v -0.805513 -0.843769 0.037110
v -0.470936 -0.509058 0.037110
v -1.198704 -0.872153 0.248121
v -1.676471 -0.668439 -0.153704
v -1.180228 -0.627028 -0.584248
v -1.380128 -0.143169 -0.732257
v -0.569386 -0.448212 -0.370300
v -0.674641 -0.101640 -0.589836
v -1.132948 -0.507553 0.728589
v -1.016404 0.082398 0.809192
v -1.582805 0.178119 0.654734
v -0.596833 0.305778 0.424582
v -1.268213 0.720369 0.137423
v -0.722731 0.557571 0.037110
v -1.080060 0.423748 -0.584248
v -0.596833 0.305778 -0.350362
v -1.786914 0.304268 -0.179237
v -1.939104 -0.143170 0.037110
v -0.674641 -0.101640 0.664056
v -1.788648 -0.507549 0.248120
v 1.486272 -0.356020 0.641650
v 1.358244 -0.818389 0.024024
v 1.690381 -0.482170 -0.192322
v 0.965052 -0.846773 0.235035
v 0.770981 -0.818390 -0.166788
v 1.842572 -0.034731 0.024024
v 1.030809 -0.482173 -0.667454
v 0.500301 -0.483679 -0.363448
v 0.578109 -0.076260 -0.602922
v 1.283596 -0.034731 -0.745343
v 0.472854 0.270312 0.431434
v 1.083697 0.449128 0.645382
v 0.708981 0.665869 0.024024
v 0.472854 0.270312 -0.383386
v 0.374404 0.331158 0.024024
v 1.579937 0.490538 -0.166790
v 1.036416 0.329652 -0.667455
v 1.102172 0.694252 -0.186986
v 1.692116 0.329651 0.235034
v 0.578109 -0.076260 0.650970
v 0.919872 -0.260298 0.796105
v 0.500301 -0.483678 0.411496
v 0.340478 -0.422829 0.024024
v -0.177141 -1.047396 0.296314
v -0.793653 -0.784522 0.270253
v -0.323912 -0.753856 -0.699983
v 0.330237 -1.010769 0.024024
v -0.938410 -0.576912 -0.248265
v -1.132560 -0.106710 0.024024
v -0.676457 -0.053120 -0.784993
v 0.758830 -0.576910 0.303199
v 0.955218 0.000469 0.024024
v 0.233909 0.000470 1.016822
v -0.092289 -0.576913 0.916315
v -0.672787 0.307884 0.821013
v 0.233909 0.000469 -0.968774
v 0.438737 -0.576912 -0.695725
v 0.616312 0.678281 0.270252
v 0.761068 0.470670 -0.248266
v -0.000201 0.941156 -0.248266
v -0.085053 0.470672 -0.868267
v -0.507579 0.904529 0.024024
v -0.936172 0.470670 -0.255151
v 0.146570 0.647615 0.748031
vt 0.8505 0.3175
vt 0.9251 0.2993
vt 0.8937 0.3709
vt 0.2715 0.9091
vt 0.2467 0.8668
vt 0.3330 0.8218
vt 0.3600 0.9562
vt 0.3647 0.8504
vt 0.8712 0.0042
vt 0.9370 0.0550
vt 0.8140 0.0675
vt 0.8407 0.1478
vt 0.8840 0.1201
vt 0.2081 0.9668
vt 0.1285 0.9505
vt 0.2081 0.8991
vt 0.1720 0.8720
vt 0.1275 0.8952
vt 0.9347 0.1478
vt 0.8230 0.3835
vt 0.9458 0.3835
vt 0.2525 0.9562
vt 0.9794 0.6799
vt 0.9920 0.7595
vt 0.9349 0.7121
vt 0.9217 0.7595
vt 0.8709 0.2424
vt 0.9117 0.4621
vt 0.9953 0.5375
vt 0.9025 0.5638
vt 0.9133 0.6839
vt 0.8903 0.7335
vt 0.8346 0.6799
vt 0.5876 0.9080
vt 0.5038 0.9678
vt 0.5150 0.8577
vt 0.7905 0.8759
vt 0.8913 0.8369
vt 0.8869 0.8851
vt 0.9133 0.7915
vt 0.7907 0.7649
vt 0.5866 0.8519
vt 0.1538 0.7296
vt 0.2335 0.7073
vt 0.2382 0.7721
vt 0.1823 0.8374
vt 0.2382 0.8636
vt 0.8122 0.9531
vt 0.8913 0.9837
vt 0.9958 0.8825
vt 0.9041 0.8977
vt 0.9514 0.8369
vt 0.1275 0.7789
vt 0.8376 0.8285
vt 0.9958 0.9683
vt 0.8997 0.9750
vt 0.4690 0.9272
vt 0.7905 0.7102
vt 0.9953 0.5870
vt 0.5876 0.9767
vt 0.9796 0.4573
vt 0.0267 0.9880
vt 0.0624 0.9473
vt 0.0794 0.9958
vt 0.6893 0.8715
vt 0.7098 0.9016
vt 0.6716 0.8974
vt 0.2014 0.3337
vt 0.2197 0.3097
vt 0.2197 0.3493
vt 0.0226 0.9253
vt 0.0794 0.8971
vt 0.7454 0.8702
vt 0.7454 0.9545
vt 0.6672 0.9322
vt 0.6900 0.9582
vt 0.2014 0.2610
vt 0.2335 0.2543
vt 0.2335 0.3013
vt 0.4592 0.5530
vt 0.4136 0.5187
vt 0.4592 0.4974
vt 0.4185 0.4802
vt 0.4817 0.1791
vt 0.5174 0.2192
vt 0.4791 0.2192
vt 0.4045 0.8218
vt 0.4558 0.8362
vt 0.3747 0.8467
vt 0.4136 0.8926
vt 0.3731 0.9028
vt 0.6951 0.9850
vt 0.4558 0.9268
vt 0.3775 0.9309
vt 0.4151 0.9449
vt 0.0042 0.9606
vt 0.7697 0.8165
vt 0.7173 0.7485
vt 0.7822 0.7586
vt 0.7024 0.2424
vt 0.7397 0.2845
vt 0.6628 0.3349
vt 0.6672 0.7802
vt 0.7016 0.6799
vt 0.7063 0.3965
vt 0.5935 0.8195
vt 0.5127 0.8435
vt 0.5563 0.7831
vt 0.3209 0.6580
vt 0.4015 0.6610
vt 0.4015 0.7404
vt 0.8375 0.5862
vt 0.8029 0.5083
vt 0.8941 0.4808
vt 0.4818 0.1707
vt 0.4791 0.0745
vt 0.5409 0.1660
vt 0.5935 0.6662
vt 0.5778 0.7196
vt 0.5033 0.7078
vt 0.5917 0.0763
vt 0.6391 0.1707
vt 0.8941 0.5946
vt 0.8228 0.4573
vt 0.5260 0.0042
vt 0.6451 0.0621
vt 0.7817 0.5719
vt 0.4690 0.7842
vt 0.8146 0.3232
vt 0.8146 0.3948
vt 0.7883 0.2691
vt 0.3232 0.8134
vt 0.2896 0.7675
vt 0.7898 0.6407
vt 0.6966 0.8587
vt 0.7822 0.8618
vt 0.7821 0.7084
vt 0.2470 0.7775
vt 0.2467 0.6864
vt 0.4052 0.5851
vt 0.3038 0.5462
vt 0.3376 0.4844
vt 0.2919 0.6044
vt 0.2467 0.5798
vt 0.4052 0.4802
vt 0.1478 0.6112
vt 0.2021 0.5476
vt 0.2318 0.6077
vt 0.7698 0.1757
vt 0.6568 0.1757
vt 0.6739 0.1266
vt 0.1715 0.6701
vt 0.8036 0.1126
vt 0.1159 0.8605
vt 0.0326 0.8887
vt 0.0548 0.8171
vt 0.1081 0.7507
vt 0.1191 0.8089
vt 0.7559 0.0434
vt 0.6534 0.0688
vt 0.7030 0.0042
vt 0.0042 0.7852
vt 0.0343 0.7080
vt 0.1395 0.6166
vt 0.0769 0.5048
vt 0.1395 0.5182
vt 0.0618 0.5477
vt 0.8056 0.0524
vt 0.2337 0.6753
vt 0.1191 0.7073
vt 0.7159 0.5975
vt 0.7447 0.6715
vt 0.6717 0.6234
vt 0.7734 0.5914
vt 0.0195 0.6546
vt 0.0042 0.5475
vt 0.7133 0.5305
vt 0.0835 0.6989
vt 0.2512 0.4953
vt 0.1491 0.5198
vt 0.2337 0.5048
vt 0.7242 0.4573
vt 0.6672 0.5094
vt 0.7734 0.4840
vt 0.3872 0.6496
vt 0.1596 0.0042
vt 0.2226 0.0565
vt 0.0832 0.0841
vt 0.2954 0.1721
vt 0.2467 0.0626
vt 0.3254 0.1017
vt 0.4690 0.4162
vt 0.4834 0.3562
vt 0.5387 0.4489
vt 0.1902 0.1071
vt 0.1156 0.1894
vt 0.1596 0.4964
vt 0.0695 0.4750
vt 0.1930 0.3617
vt 0.5703 0.2509
vt 0.6544 0.2424
vt 0.6544 0.3735
vt 0.0042 0.1789
vt 0.6588 0.6578
vt 0.5721 0.6542
vt 0.6588 0.5097
vt 0.5631 0.4573
vt 0.5846 0.5135
vt 0.4690 0.5289
vt 0.4968 0.6302
vt 0.4606 0.3725
vt 0.4210 0.4718
vt 0.3956 0.3307
vt 0.3152 0.3784
vt 0.3249 0.2424
vt 0.4476 0.2504
vt 0.1117 0.3061
vt 0.0429 0.3697
vt 0.0042 0.3085
vt 0.0492 0.2459
vt 0.3115 0.4718
vt 0.2467 0.3589
vt 0.1930 0.2543
vt 0.0104 0.4252
vt 0.0054 0.0869
vt 0.2383 0.1644
vt 0.1949 0.2459
vt 0.3841 0.2340
vt 0.4191 0.0980
vt 0.4707 0.2155
vt 0.3288 0.0042
vt 0.4707 0.0444
vt 0.4697 0.2704
vn 0.6767 -0.7173 0.1659
vn -0.9892 -0.1465 -0.0021
vn -0.5174 -0.2639 -0.8140
vn -0.9872 -0.1216 -0.1029
vn 0.7624 0.0511 -0.6451
vn 0.4462 0.8664 -0.2241
vn -0.2284 0.8687 -0.4396
vn -0.4550 0.8721 -0.1798
vn -0.5415 0.8302 -0.1325
vn 0.6931 0.1897 -0.6955
vn -0.1364 0.2963 -0.9453
vn 0.9706 -0.1825 0.1569
vn 0.3067 -0.7883 -0.5334
vn 0.0467 -0.8248 -0.5635
vn -0.4172 -0.8662 0.2751
vn -0.3028 -0.8231 0.4804
vn 0.2535 -0.6850 0.6831
vn 0.6330 -0.6895 0.3521
vn -0.3185 -0.9188 0.2333
vn -0.6488 -0.3531 -0.6740
vn 0.6068 -0.3829 -0.6966
vn -0.3081 -0.0080 0.9513
vn -0.2137 -0.0351 -0.9763
vn -0.3997 0.8065 0.4357
vn -0.7690 0.6144 -0.1764
vn -0.0030 0.6912 -0.7227
vn 0.3528 0.7425 -0.5694
vn 0.3062 0.9059 0.2925
vn 0.8035 0.2310 -0.5487
vn -0.8170 0.5452 -0.1877
vn -0.2915 0.0302 0.9561
vn 0.6672 0.3623 0.6508
vn 0.8690 0.1064 0.4833
vn -0.7795 -0.2443 -0.5768
vn -0.8474 -0.2656 0.4598
vn -0.7252 -0.3332 0.6025
vn 0.5617 -0.6076 -0.5615
vn -0.3631 -0.8005 -0.4769
vn 0.3411 -0.7955 0.5008
vn 0.0356 -0.8963 0.4421
vn -0.2628 -0.9253 0.2735
vn -0.2680 -0.9435 -0.1947
vn 0.8761 -0.2641 0.4034
vn 0.0776 -0.2612 0.9622
vn -0.8113 -0.3984 0.4279
vn 0.6340 0.7652 -0.1119
vn 0.1495 0.8683 -0.4730
vn -0.2182 0.9759 0.0000
vn -0.7253 0.5175 0.4541
vn -0.0446 0.7398 0.6714
vn 0.1474 0.6416 0.7527
vn 0.6754 0.6774 0.2914
vn -0.7872 0.4173 0.4541
vn -0.7218 -0.1969 0.6635
vn 0.1901 -0.1500 0.9703
vn 0.9836 -0.0002 0.1805
vn 0.9777 -0.0703 0.1981
vn -0.7100 -0.6489 0.2735
vn 0.5600 -0.8231 0.0947
vn 0.4089 -0.9038 0.1260
vn 0.6817 -0.6814 0.2665
vn -0.1658 -0.9450 -0.2820
vn -0.0830 -0.9555 -0.2832
vn -0.5651 -0.4458 -0.6942
vn 0.4049 -0.3984 -0.8230
vn -0.2744 -0.0768 0.9586
vn 0.1879 0.7464 0.6384
vn 0.2157 0.9216 -0.3226
vn 0.3973 0.8231 -0.4058
vn -0.3867 0.8131 -0.4350
vn -0.6976 0.6633 0.2711
vn -0.0711 0.7098 0.7008
vn 0.3301 0.8369 0.4366
vn 0.4765 0.3761 -0.7947
vn -0.4992 0.4565 -0.7365
vn -0.8617 0.4262 0.2754
vn 0.5212 0.3563 0.7755
vn 0.1868 0.1544 -0.9702
vn 0.2053 -0.2077 -0.9564
vn -0.8090 -0.0090 -0.5878
vn -0.7947 -0.1876 -0.5773
vn -0.9031 -0.4212 -0.0835
vn -0.8532 -0.0517 0.5191
vn -0.5660 -0.2881 0.7724
vn 0.2972 -0.1866 0.9364
vn 0.4482 -0.3772 0.8104
vn 0.4010 -0.7624 -0.5078
vn -0.5161 -0.8351 0.1903
vn -0.4272 -0.6912 0.5829
vn 0.6817 -0.6814 -0.2665
vn 0.3439 -0.7701 0.5373
vn 0.3439 -0.7697 0.5379
vn 0.3446 -0.7696 0.5376
vn 0.3522 -0.7652 0.5389
vn 0.7666 -0.5801 0.2754
vn 0.0271 -0.9961 -0.0835
vn 0.8617 -0.4262 0.2754
vn -0.4583 -0.3837 -0.8017
vn 0.5287 -0.4264 -0.7339
vn -0.1941 -0.0608 -0.9791
vn 0.8090 0.0090 -0.5878
vn -0.4010 0.7624 0.5078
vn -0.6817 0.6814 -0.2665
vn 0.3356 0.7277 -0.5982
vn -0.3439 0.7701 -0.5373
vn -0.3446 0.7696 -0.5376
vn -0.3439 0.7697 -0.5379
vn -0.3522 0.7652 -0.5389
vn -0.6817 0.6814 0.2665
vn 0.0830 0.9555 0.2832
vn 0.3679 0.8897 0.2702
vn 0.3527 0.8985 0.2613
vn 0.9031 0.4212 -0.0835
vn 0.7947 0.1876 -0.5773
vn 0.5054 0.4941 -0.7074
vn -0.2014 0.0722 -0.9768
vn -0.4482 0.3772 -0.8104
vn -0.4049 0.3984 0.8230
vn -0.2570 0.2573 0.9315
vn 0.5739 0.2834 0.7684
vn 0.8532 0.0517 0.5191
vn -0.5212 -0.3563 0.7755
vn 0.2820 0.1366 0.9496
vn 0.3933 -0.7398 -0.5459
vn 0.1598 -0.8559 -0.4918
vn -0.3661 -0.6734 -0.6422
vn -0.7081 -0.6814 -0.1851
vn -0.6347 -0.7595 0.1425
vn -0.5514 -0.8075 0.2093
vn -0.2683 -0.6766 0.6857
vn 0.0814 -0.6857 0.7233
vn 0.3353 -0.7862 0.5191
vn -0.3759 -0.9024 -0.2105
vn -0.0764 -0.9594 -0.2714
vn -0.9031 -0.4212 0.0835
vn -0.6155 -0.3926 -0.6835
vn 0.8090 0.0090 0.5878
vn -0.2247 -0.0425 0.9735
vn -0.1818 -0.2080 -0.9611
vn 0.5161 0.8351 -0.1903
vn 0.4272 0.6912 -0.5829
vn -0.3933 0.7398 -0.5459
vn -0.7666 0.5801 0.2754
vn 0.0764 0.9594 0.2714
vn -0.2819 0.7952 0.5369
vn 0.1933 0.9485 0.2510
vn 0.8090 -0.0063 -0.5878
vn 0.5128 0.4974 -0.6998
vn -0.2014 0.0721 -0.9768
vn -0.5162 0.4689 -0.7166
vn -0.0728 0.3742 0.9245
vn 0.6523 0.3641 0.6647
vn 0.7947 0.1876 0.5773
vn 0.9031 0.4212 0.0835
vn 0.0972 -0.3971 -0.9126
vn -0.8712 0.0608 -0.4871
vn -0.8668 -0.0721 -0.4934
vn -0.8019 -0.1959 0.5645
vn -0.5932 -0.3091 0.7433
vn 0.5287 -0.4264 0.7339
vn 0.8614 -0.4264 -0.2760
vn 0.2004 -0.8521 -0.4834
vn -0.4231 -0.8757 -0.2325
vn -0.3356 -0.7277 0.5982
vn 0.7639 -0.5971 -0.2448
vn 0.3933 -0.7398 0.5459
usemtl Material.001
s 1
f 1/1/1 2/2/1 3/3/1
f 4/4/2 5/5/2 6/6/2
f 7/7/3 4/4/3 8/8/3
f 4/4/4 6/6/4 8/8/4
f 3/9/5 7/10/5 9/11/5
f 10/12/6 9/11/6 11/13/6
f 11/14/7 8/15/7 10/16/7
f 8/15/8 12/17/8 10/16/8
f 8/15/9 6/18/9 12/17/9
f 7/10/10 11/13/10 9/11/10
f 7/10/11 8/19/11 11/13/11
f 1/1/12 3/3/12 9/20/12
f 2/2/13 7/21/13 3/3/13
f 2/22/14 4/4/14 7/7/14
f 4/23/15 2/24/15 5/25/15
f 2/24/16 13/26/16 5/25/16
f 2/2/17 1/1/17 13/27/17
f 14/28/18 15/29/18 16/30/18
f 15/31/19 17/32/19 18/33/19
f 19/34/20 18/35/20 20/36/20
f 16/37/21 19/38/21 21/39/21
f 17/32/22 14/40/22 22/41/22
f 19/34/23 20/36/23 21/42/23
f 22/43/24 23/44/24 24/45/24
f 20/46/25 22/43/25 24/45/25
f 21/47/26 20/46/26 24/45/26
f 25/48/27 21/39/27 24/49/27
f 23/50/28 25/51/28 24/52/28
f 16/37/29 21/39/29 25/48/29
f 26/53/30 22/43/30 20/46/30
f 22/41/31 14/40/31 23/54/31
f 14/55/32 25/51/32 23/50/32
f 14/55/33 16/56/33 25/51/33
f 20/36/34 18/35/34 26/57/34
f 26/58/35 18/33/35 22/41/35
f 18/33/36 17/32/36 22/41/36
f 15/29/37 19/59/37 16/30/37
f 15/60/38 18/35/38 19/34/38
f 17/61/39 15/29/39 14/28/39
f 27/62/40 28/63/40 29/64/40
f 27/65/41 29/66/41 30/67/41
f 27/68/42 30/69/42 31/70/42
f 28/63/43 32/71/43 33/72/43
f 29/66/44 28/73/44 34/74/44
f 35/75/45 29/66/45 36/76/45
f 37/77/46 38/78/46 39/79/46
f 38/80/47 40/81/47 39/82/47
f 40/81/48 41/83/48 39/82/48
f 42/84/49 34/85/49 41/86/49
f 41/87/50 34/88/50 39/89/50
f 34/88/51 33/90/51 39/89/51
f 33/90/52 37/91/52 39/89/52
f 36/76/53 34/74/53 42/92/53
f 36/76/54 29/66/54 34/74/54
f 34/88/55 28/93/55 33/90/55
f 33/90/56 43/94/56 37/91/56
f 33/90/57 32/95/57 43/94/57
f 30/67/58 29/66/58 35/75/58
f 32/71/59 28/63/59 44/96/59
f 28/63/60 27/62/60 44/96/60
f 45/97/61 46/98/61 47/99/61
f 48/100/62 49/101/62 50/102/62
f 48/103/63 50/104/63 46/98/63
f 50/102/64 49/101/64 51/105/64
f 52/106/65 50/107/65 53/108/65
f 54/109/66 55/110/66 56/111/66
f 55/112/67 57/113/67 58/114/67
f 59/115/68 60/116/68 58/117/68
f 59/118/69 61/119/69 60/120/69
f 60/116/70 62/121/70 58/117/70
f 62/121/71 56/122/71 58/117/71
f 56/123/72 55/112/72 58/114/72
f 58/114/73 57/113/73 59/124/73
f 53/108/74 60/120/74 61/119/74
f 51/125/75 62/121/75 60/116/75
f 63/126/76 56/122/76 62/121/76
f 64/127/77 57/113/77 55/112/77
f 53/108/78 51/128/78 60/120/78
f 53/108/79 50/107/79 51/128/79
f 51/105/80 63/129/80 62/130/80
f 51/105/81 49/101/81 63/129/81
f 49/101/82 65/131/82 63/129/82
f 63/132/83 65/133/83 56/111/83
f 65/133/84 54/109/84 56/111/84
f 55/112/85 54/134/85 64/127/85
f 54/135/86 45/97/86 64/136/86
f 46/98/87 50/104/87 52/137/87
f 49/138/88 48/139/88 65/133/88
f 48/139/89 54/109/89 65/133/89
f 47/99/90 46/98/90 52/137/90
f 48/103/91 46/98/92 54/135/93
f 46/98/92 45/97/94 54/135/93
f 66/140/95 67/141/95 68/142/95
f 69/143/96 70/144/96 67/141/96
f 66/140/97 68/142/97 71/145/97
f 72/146/98 73/147/98 74/148/98
f 68/149/99 72/150/99 75/151/99
f 72/146/100 74/148/100 75/152/100
f 68/149/101 75/151/101 71/153/101
f 76/154/102 77/155/102 78/156/102
f 79/157/103 80/158/103 78/156/103
f 81/159/104 82/160/104 83/161/104
f 83/162/105 82/163/106 78/156/107
f 82/163/106 79/157/108 78/156/107
f 80/158/109 76/154/109 78/156/109
f 78/156/110 77/155/110 83/162/110
f 77/164/111 81/165/111 83/166/111
f 77/164/112 84/167/112 81/165/112
f 71/153/113 81/159/113 84/168/113
f 71/153/114 75/151/114 81/159/114
f 75/151/115 82/160/115 81/159/115
f 75/152/116 74/148/116 82/169/116
f 74/170/117 79/157/117 82/163/117
f 85/171/118 77/172/118 76/173/118
f 85/171/119 86/174/119 77/172/119
f 66/175/120 84/167/120 77/164/120
f 66/175/121 71/176/121 84/167/121
f 87/177/122 86/174/122 85/171/122
f 86/178/123 66/175/123 77/164/123
f 67/141/124 72/179/124 68/142/124
f 67/141/125 70/144/125 72/179/125
f 70/180/126 73/147/126 72/146/126
f 70/180/127 88/181/127 73/147/127
f 70/182/128 87/177/128 88/183/128
f 70/182/129 69/184/129 87/177/129
f 69/184/130 86/174/130 87/177/130
f 69/143/131 66/140/131 86/185/131
f 69/143/132 67/141/132 66/140/132
f 89/186/133 90/187/133 91/188/133
f 89/189/134 91/190/134 92/191/134
f 93/192/135 90/193/135 94/194/135
f 91/188/136 93/195/136 95/196/136
f 96/197/137 97/198/137 98/199/137
f 99/200/138 98/201/138 100/202/138
f 91/188/139 95/196/139 101/203/139
f 102/204/101 101/205/101 97/206/101
f 103/207/140 104/208/140 105/209/140
f 104/208/141 106/210/141 105/209/141
f 105/211/105 106/212/105 107/213/105
f 106/212/142 108/214/142 107/213/142
f 108/214/143 100/215/143 107/213/143
f 107/213/144 109/216/144 105/211/144
f 107/213/145 100/215/145 109/216/145
f 109/217/146 103/218/146 105/219/146
f 97/206/147 101/205/147 104/208/147
f 101/205/148 106/210/148 104/208/148
f 101/203/149 95/196/149 106/220/149
f 95/221/150 108/214/150 106/212/150
f 94/222/76 100/215/76 108/214/76
f 98/199/151 109/217/151 100/223/151
f 98/199/152 103/218/152 109/217/152
f 98/199/153 97/198/153 103/218/153
f 97/198/154 104/224/154 103/218/154
f 102/225/155 91/188/155 101/203/155
f 95/196/156 94/226/156 108/227/156
f 95/196/157 93/195/157 94/226/157
f 94/194/158 90/193/158 100/202/158
f 90/193/159 99/200/159 100/202/159
f 99/228/160 96/229/160 98/230/160
f 96/229/161 102/231/161 97/232/161
f 92/191/162 91/190/162 102/231/162
f 91/188/163 90/187/163 93/195/163
f 89/233/164 99/200/164 90/193/164
f 96/229/165 92/191/165 102/231/165
f 89/189/91 92/191/91 99/228/91
f 92/191/166 96/229/166 99/228/166
