# Blender v2.76 (sub 0) OBJ File: ''
# www.blender.org
v 1.154484 -0.684936 -0.215484
v 0.826702 -1.050882 -0.460812
v 1.224633 -0.731664 -0.703742
v 0.337259 -0.898739 -0.724086
v 0.311640 -0.732821 -0.240513
v 0.219280 -0.104865 -0.530427
v 0.840004 -0.581756 -1.146413
v 0.264471 -0.138247 -0.924367
v 1.313301 -0.128896 -0.551246
v 0.721332 0.181372 -0.530185
v 0.860633 -0.003664 -0.968203
v 0.467918 0.085465 -0.354057
v 0.573572 -0.694170 -0.009183
v -0.494969 0.476278 0.481049
v -0.650347 0.007152 -0.158389
v -0.140572 0.476278 -0.156125
v -0.896123 0.221173 0.349002
v -1.261759 0.238643 -0.081432
v -0.758420 0.326368 -0.611913
v -1.103535 0.852393 -0.555255
v -0.565395 0.735933 -0.668881
v -1.285278 0.849848 0.228270
v -0.717846 1.040832 0.395254
v -0.862191 1.268390 -0.158389
v -0.250780 1.036900 -0.081432
v -1.376877 0.605911 -0.081432
v 0.559025 -0.501001 0.600754
v 0.802367 -0.351330 0.884580
v 0.364288 -0.351330 0.919893
v 0.314684 -0.431589 0.600754
v 0.483521 -0.431590 0.368374
v 0.954377 -0.280579 0.600754
v 0.914102 0.090013 0.930910
v 0.354753 0.090013 1.040477
v 0.143326 -0.244086 0.600754
v 0.117006 -0.036235 0.744373
v 0.974724 0.171615 0.600754
v 0.878247 0.216034 0.357821
v 0.678202 0.429979 0.687341
v 0.361350 0.359120 0.457136
v 0.361350 0.359120 0.744372
v 0.163673 0.208109 0.600754
v 1.001044 -0.036235 0.457136
v 0.756700 -0.431590 0.457137
v -0.569386 -0.448212 0.444520
v -0.805513 -0.843769 0.037110
v -0.470936 -0.509058 0.037110
v -1.198704 -0.872153 0.248121
v -1.676471 -0.668439 -0.153704
v -1.180228 -0.627028 -0.584248
v -1.380128 -0.143169 -0.732257
v -0.569386 -0.448212 -0.370300
v -0.674641 -0.101640 -0.589836
v -1.132948 -0.507553 0.728589
v -1.016404 0.082398 0.809192
v -1.582805 0.178119 0.654734
v -0.596833 0.305778 0.424582
v -1.268213 0.720369 0.137423
v -0.722731 0.557571 0.037110
v -1.080060 0.423748 -0.584248
v -0.596833 0.305778 -0.350362
v -1.786914 0.304268 -0.179237
v -1.939104 -0.143170 0.037110
v -0.674641 -0.101640 0.664056
v -1.788648 -0.507549 0.248120
v 1.486272 -0.356020 0.641650
v 1.358244 -0.818389 0.024024
v 1.690381 -0.482170 -0.192322
v 0.965052 -0.846773 0.235035
v 0.770981 -0.818390 -0.166788
v 1.842572 -0.034731 0.024024
v 1.030809 -0.482173 -0.667454
v 0.500301 -0.483679 -0.363448
v 0.578109 -0.076260 -0.602922
v 1.283596 -0.034731 -0.745343
v 0.472854 0.270312 0.431434
v 1.083697 0.449128 0.645382
v 0.708981 0.665869 0.024024
v 0.472854 0.270312 -0.383386
v 0.374404 0.331158 0.024024
v 1.579937 0.490538 -0.166790
v 1.036416 0.329652 -0.667455
v 1.102172 0.694252 -0.186986
v 1.692116 0.329651 0.235034
v 0.578109 -0.076260 0.650970
v 0.919872 -0.260298 0.796105
v 0.500301 -0.483678 0.411496
v 0.340478 -0.422829 0.024024
v -0.177141 -1.047396 0.296314
v -0.793653 -0.784522 0.270253
v -0.323912 -0.753856 -0.699983
v 0.330237 -1.010769 0.024024
v -0.938410 -0.576912 -0.248265
v -1.132560 -0.106710 0.024024
v -0.676457 -0.053120 -0.784993
v 0.758830 -0.576910 0.303199
v 0.955218 0.000469 0.024024
v 0.233909 0.000470 1.016822
v -0.092289 -0.576913 0.916315
v -0.672787 0.307884 0.821013
v 0.233909 0.000469 -0.968774
v 0.438737 -0.576912 -0.695725
v 0.616312 0.678281 0.270252
v 0.761068 0.470670 -0.248266
v -0.000201 0.941156 -0.248266
v -0.085053 0.470672 -0.868267
v -0.507579 0.904529 0.024024
v -0.936172 0.470670 -0.255151
v 0.146570 0.647615 0.748031
vn 0.707900 -0.596700 0.377900
vn 0.160600 -0.982700 0.092800
vn 0.811300 -0.481000 -0.332400
vn -0.636500 -0.692400 -0.339700
vn -0.701300 -0.659000 0.271800
vn -0.893400 0.433000 -0.119500
vn 0.184300 -0.270300 -0.945000
vn -0.712600 0.360500 -0.601900
vn 0.864600 0.280900 -0.416600
vn -0.097200 0.948800 -0.300600
vn 0.261700 0.647000 -0.716200
vn -0.480500 0.861100 -0.166400
vn -0.080400 -0.803600 0.589700
vn 0.424200 -0.231400 0.875500
vn 0.210200 -0.970900 -0.115100
vn 0.951500 -0.287300 -0.110500
vn -0.245000 -0.627600 0.739000
vn -0.766700 -0.640300 -0.046000
vn -0.029400 -0.536600 -0.843300
vn -0.583700 0.332700 -0.740700
vn 0.361200 0.207100 -0.909200
vn -0.780300 0.338500 0.525900
vn 0.071000 0.599700 0.797000
vn -0.169600 0.972400 -0.160300
vn 0.783000 0.622000 -0.000400
vn -0.995800 -0.002000 -0.091300
vn 0.008100 -0.986500 0.163500
vn 0.469300 -0.609200 0.639200
vn -0.361900 -0.610700 0.704400
vn -0.457900 -0.873000 0.167900
vn -0.268000 -0.943500 -0.194700
vn 0.855200 -0.462400 0.234100
vn 0.661700 0.236000 0.711600
vn -0.339400 0.249500 0.907000
vn -0.779000 -0.506900 0.369000
vn -0.835800 -0.006100 0.549000
vn 0.872300 0.468400 0.140200
vn 0.452300 0.848100 -0.276000
vn 0.246900 0.952200 0.179800
vn -0.039200 0.968900 -0.244300
vn -0.352500 0.819000 0.452800
vn -0.757500 0.468200 0.454900
vn 0.980300 -0.045500 0.192000
vn 0.475500 -0.872400 0.113000
vn 0.488600 -0.643400 0.589300
vn 0.383100 -0.923600 -0.013300
vn 0.707200 -0.707000 0.000000
vn -0.107100 -0.955900 0.273500
vn -0.648800 -0.693600 -0.313000
vn -0.043900 -0.666900 -0.743900
vn -0.360300 -0.022100 -0.932600
vn 0.495300 -0.627500 -0.600700
vn 0.347800 -0.027900 -0.937200
vn -0.051000 -0.517100 0.854400
vn 0.111100 0.296400 0.948600
vn -0.574200 0.340800 0.744400
vn 0.320700 0.693200 0.645400
vn -0.177500 0.972600 0.150300
vn 0.335700 0.941900 0.008600
vn 0.022100 0.653800 -0.756300
vn 0.455300 0.642000 -0.616900
vn -0.803400 0.515800 -0.297600
vn -0.999300 -0.003300 -0.037000
vn 0.457200 -0.044800 0.888200
vn -0.773200 -0.497500 0.393300
vn 0.572100 -0.328100 0.751700
vn 0.447400 -0.894200 -0.012600
vn 0.815200 -0.488900 -0.310400
vn -0.103100 -0.921600 0.374200
vn -0.326400 -0.908500 -0.261100
vn 0.999300 0.003300 -0.037000
vn 0.027300 -0.532800 -0.845800
vn -0.555600 -0.626800 -0.546300
vn -0.380100 0.008100 -0.924900
vn 0.386700 0.036800 -0.921500
vn -0.495300 0.627500 0.600700
vn 0.104900 0.647400 0.754900
vn -0.383100 0.923600 0.013300
vn -0.488600 0.643400 -0.589300
vn -0.707200 0.707000 0.000000
vn 0.661900 0.698600 -0.271700
vn -0.018000 0.537700 -0.843000
vn 0.098900 0.966700 -0.235900
vn 0.751500 0.537200 0.383100
vn -0.428200 0.069500 0.901000
vn -0.103600 -0.246700 0.963500
vn -0.493000 -0.704200 0.510900
vn -0.671100 -0.741000 0.022000
vn -0.089800 -0.963900 0.250500
vn -0.662800 -0.684600 0.303400
vn -0.226600 -0.690600 -0.686800
vn 0.406000 -0.913700 -0.014500
vn -0.780700 -0.528600 -0.333400
vn -0.997900 -0.008700 0.064400
vn -0.575600 0.013800 -0.817600
vn 0.815400 -0.485700 0.315000
vn 1.000000 0.004100 0.008800
vn 0.363100 0.040000 0.930900
vn -0.034800 -0.512100 0.858200
vn -0.587500 0.307800 0.748400
vn 0.345400 0.043500 -0.937500
vn 0.562200 -0.492600 -0.664200
vn 0.662700 0.687200 0.297500
vn 0.786400 0.481200 -0.387400
vn 0.106300 0.954200 -0.279500
vn -0.025400 0.546900 -0.836800
vn -0.414900 0.909200 0.034900
vn -0.805400 0.520900 -0.282800
vn 0.200200 0.700400 0.685100
s 1
f 1//1 2//2 3//3
f 4//4 5//5 6//6
f 7//7 4//4 8//8
f 4//4 6//6 8//8
f 3//3 7//7 9//9
f 10//10 9//9 11//11
f 11//11 8//8 10//10
f 8//8 12//12 10//10
f 8//8 6//6 12//12
f 7//7 11//11 9//9
f 7//7 8//8 11//11
f 1//1 3//3 9//9
f 2//2 7//7 3//3
f 2//2 4//4 7//7
f 4//4 2//2 5//5
f 2//2 13//13 5//5
f 2//2 1//1 13//13
f 14//14 15//15 16//16
f 15//15 17//17 18//18
f 19//19 18//18 20//20
f 16//16 19//19 21//21
f 17//17 14//14 22//22
f 19//19 20//20 21//21
f 22//22 23//23 24//24
f 20//20 22//22 24//24
f 21//21 20//20 24//24
f 25//25 21//21 24//24
f 23//23 25//25 24//24
f 16//16 21//21 25//25
f 26//26 22//22 20//20
f 22//22 14//14 23//23
f 14//14 25//25 23//23
f 14//14 16//16 25//25
f 20//20 18//18 26//26
f 26//26 18//18 22//22
f 18//18 17//17 22//22
f 15//15 19//19 16//16
f 15//15 18//18 19//19
f 17//17 15//15 14//14
f 27//27 28//28 29//29
f 27//27 29//29 30//30
f 27//27 30//30 31//31
f 28//28 32//32 33//33
f 29//29 28//28 34//34
f 35//35 29//29 36//36
f 37//37 38//38 39//39
f 38//38 40//40 39//39
f 40//40 41//41 39//39
f 42//42 34//34 41//41
f 41//41 34//34 39//39
f 34//34 33//33 39//39
f 33//33 37//37 39//39
f 36//36 34//34 42//42
f 36//36 29//29 34//34
f 34//34 28//28 33//33
f 33//33 43//43 37//37
f 33//33 32//32 43//43
f 30//30 29//29 35//35
f 32//32 28//28 44//44
f 28//28 27//27 44//44
f 45//45 46//46 47//47
f 48//48 49//49 50//50
f 48//48 50//50 46//46
f 50//50 49//49 51//51
f 52//52 50//50 53//53
f 54//54 55//55 56//56
f 55//55 57//57 58//58
f 59//59 60//60 58//58
f 59//59 61//61 60//60
f 60//60 62//62 58//58
f 62//62 56//56 58//58
f 56//56 55//55 58//58
f 58//58 57//57 59//59
f 53//53 60//60 61//61
f 51//51 62//62 60//60
f 63//63 56//56 62//62
f 64//64 57//57 55//55
f 53//53 51//51 60//60
f 53//53 50//50 51//51
f 51//51 63//63 62//62
f 51//51 49//49 63//63
f 49//49 65//65 63//63
f 63//63 65//65 56//56
f 65//65 54//54 56//56
f 55//55 54//54 64//64
f 54//54 45//45 64//64
f 46//46 50//50 52//52
f 49//49 48//48 65//65
f 48//48 54//54 65//65
f 47//47 46//46 52//52
f 48//48 46//46 54//54
f 46//46 45//45 54//54
f 66//66 67//67 68//68
f 69//69 70//70 67//67
f 66//66 68//68 71//71
f 72//72 73//73 74//74
f 68//68 72//72 75//75
f 72//72 74//74 75//75
f 68//68 75//75 71//71
f 76//76 77//77 78//78
f 79//79 80//80 78//78
f 81//81 82//82 83//83
f 83//83 82//82 78//78
f 82//82 79//79 78//78
f 80//80 76//76 78//78
f 78//78 77//77 83//83
f 77//77 81//81 83//83
f 77//77 84//84 81//81
f 71//71 81//81 84//84
f 71//71 75//75 81//81
f 75//75 82//82 81//81
f 75//75 74//74 82//82
f 74//74 79//79 82//82
f 85//85 77//77 76//76
f 85//85 86//86 77//77
f 66//66 84//84 77//77
f 66//66 71//71 84//84
f 87//87 86//86 85//85
f 86//86 66//66 77//77
f 67//67 72//72 68//68
f 67//67 70//70 72//72
f 70//70 73//73 72//72
f 70//70 88//88 73//73
f 70//70 87//87 88//88
f 70//70 69//69 87//87
f 69//69 86//86 87//87
f 69//69 66//66 86//86
f 69//69 67//67 66//66
f 89//89 90//90 91//91
f 89//89 91//91 92//92
f 93//93 90//90 94//94
f 91//91 93//93 95//95
f 96//96 97//97 98//98
f 99//99 98//98 100//100
f 91//91 95//95 101//101
f 102//102 101//101 97//97
f 103//103 104//104 105//105
f 104//104 106//106 105//105
f 105//105 106//106 107//107
f 106//106 108//108 107//107
f 108//108 100//100 107//107
f 107//107 109//109 105//105
f 107//107 100//100 109//109
f 109//109 103//103 105//105
f 97//97 101//101 104//104
f 101//101 106//106 104//104
f 101//101 95//95 106//106
f 95//95 108//108 106//106
f 94//94 100//100 108//108
f 98//98 109//109 100//100
f 98//98 103//103 109//109
f 98//98 97//97 103//103
f 97//97 104//104 103//103
f 102//102 91//91 101//101
f 95//95 94//94 108//108
f 95//95 93//93 94//94
f 94//94 90//90 100//100
f 90//90 99//99 100//100
f 99//99 96//96 98//98
f 96//96 102//102 97//97
f 92//92 91//91 102//102
f 91//91 90//90 93//93
f 89//89 99//99 90//90
f 96//96 92//92 102//102
f 89//89 92//92 99//99
f 92//92 96//96 99//99
