# Blender v2.78 (sub 0) OBJ File: ''
# www.blender.org
mtllib pine-flat.mtl
o Cylinder
v -0.001268 4.468686 -0.012398
v 0.211883 3.830735 -0.203088
v -0.001654 3.830736 -0.291539
v 0.015905 4.468686 -0.005284
v 0.300334 3.830735 0.010449
v 0.023019 4.468686 0.011889
v 0.211883 3.830736 0.223986
v 0.015905 4.468686 0.029062
v -0.001654 3.830736 0.312436
v -0.018441 4.468686 0.029062
v -0.215191 3.830735 0.223986
v -0.025555 4.468686 0.011889
v -0.303641 3.830735 0.010449
v -0.001268 4.468686 0.036175
v -0.018441 4.468686 -0.005284
v -0.215191 3.830735 -0.203088
v 0.184216 -0.000001 0.194118
v -0.192216 -0.000001 0.194118
v -0.192216 -0.000001 -0.182313
v -0.422595 2.787596 -0.412217
v -0.001654 3.830735 -0.146101
v -0.002285 2.787597 -0.586314
v -0.596693 2.787596 0.008093
v -0.112351 3.830735 -0.100249
v -0.422595 2.787596 0.428403
v -0.158204 3.830735 0.010449
v -0.002285 2.787597 0.602501
v -0.112351 3.830735 0.121146
v 0.109044 3.830735 0.121146
v 0.418025 2.787597 0.428403
v 0.154896 3.830735 0.010449
v 0.592123 2.787596 0.008093
v 0.109044 3.830735 -0.100249
v 0.418025 2.787596 -0.412217
v -0.002285 2.787597 -0.364726
v 0.563087 1.827909 -0.560026
v -0.002865 1.827909 -0.794451
v 0.261338 2.787597 -0.255530
v 0.797513 1.827909 0.005927
v 0.370534 2.787597 0.008093
v 0.563087 1.827909 0.571880
v 0.261338 2.787597 0.271716
v -0.002865 1.827909 0.806305
v -0.265908 2.787597 0.271716
v -0.568818 1.827909 0.571879
v -0.375104 2.787597 0.008093
v -0.803243 1.827909 0.005927
v -0.265908 2.787597 -0.255530
v -0.568818 1.827909 -0.560026
v -0.734462 0.745895 -0.727458
v -0.002865 1.827909 -0.565860
v -0.003520 0.745895 -1.030224
v -1.037228 0.745895 0.003485
v -0.407180 1.827909 -0.398387
v -0.734462 0.745895 0.734427
v -0.574652 1.827909 0.005927
v -0.003520 0.745895 1.037193
v -0.407180 1.827909 0.410241
v 0.401449 1.827909 0.410241
v 0.727423 0.745895 0.734427
v 0.568922 1.827909 0.005927
v 1.030189 0.745895 0.003485
v 0.401449 1.827909 -0.398387
v 0.727423 0.745895 -0.727458
v -0.003806 0.728546 -0.229686
v 0.184216 -0.000001 -0.182313
v -0.004000 -0.000001 -0.260274
v 0.168658 0.728546 -0.158249
v 0.262177 -0.000001 0.005903
v 0.240095 0.728546 0.014215
v 0.168658 0.728546 0.186679
v -0.004000 -0.000001 0.272080
v -0.176270 0.728546 0.186679
v -0.247707 0.728546 0.014215
v -0.270177 -0.000001 0.005903
v -0.176270 0.728546 -0.158249
v -0.002285 2.787597 0.380912
v -0.001654 3.830735 0.166999
v -0.002865 1.827909 0.577714
v -0.003806 0.728546 0.258116
vn 0.3548 0.3746 -0.8566
vn 0.8571 0.3734 -0.3550
vn 0.8576 0.3720 0.3552
vn 0.3553 0.3713 0.8578
vn -0.3553 0.3716 0.8577
vn -0.8572 0.3729 0.3551
vn 0.0000 1.0000 0.0000
vn -0.8567 0.3743 -0.3549
vn -0.3548 0.3750 -0.8565
vn 0.0000 -1.0000 -0.0000
vn -0.3565 0.3634 -0.8607
vn -0.8610 0.3627 -0.3566
vn -0.8615 0.3613 0.3568
vn -0.3570 0.3601 0.8619
vn 0.3571 0.3597 0.8620
vn 0.8618 0.3604 0.3570
vn 0.8613 0.3618 -0.3568
vn 0.3566 0.3631 -0.8608
vn 0.3536 0.3821 -0.8538
vn 0.8542 0.3809 -0.3538
vn 0.8548 0.3795 0.3541
vn 0.3542 0.3788 0.8550
vn -0.3541 0.3792 0.8549
vn -0.8544 0.3804 0.3539
vn -0.8539 0.3817 -0.3537
vn -0.3536 0.3825 -0.8536
vn -0.3557 0.3688 -0.8588
vn -0.8590 0.3680 -0.3558
vn -0.8595 0.3667 0.3560
vn -0.3562 0.3654 0.8600
vn 0.3563 0.3650 0.8601
vn 0.8599 0.3658 0.3562
vn 0.8594 0.3672 -0.3560
vn 0.3558 0.3684 -0.8589
vn 0.3824 0.0387 -0.9232
vn 0.9234 0.0324 -0.3825
vn 0.9236 0.0236 0.3826
vn 0.3826 0.0176 0.9237
vn -0.3826 0.0178 0.9237
vn -0.9236 0.0241 0.3826
vn -0.9234 0.0328 -0.3825
vn -0.3824 0.0389 -0.9232
vn 0.0090 -0.9997 -0.0217
vn 0.0218 -0.9997 -0.0090
vn 0.0221 -0.9997 0.0091
vn 0.0092 -0.9997 0.0223
vn -0.0092 -0.9997 0.0223
vn -0.0221 -0.9997 0.0092
vn -0.0218 -0.9997 -0.0090
vn -0.0090 -0.9997 -0.0217
vn 0.8571 0.3734 -0.3551
vn 0.8576 0.3720 0.3553
vn 0.0000 1.0000 -0.0001
vn 0.0000 1.0000 0.0001
usemtl None
s off
f 1//1 2//1 3//1
f 4//2 5//2 2//2
f 6//3 7//3 5//3
f 8//4 9//4 7//4
f 9//5 10//5 11//5
f 11//6 12//6 13//6
f 10//7 14//7 6//7
f 13//8 15//8 16//8
f 16//9 1//9 3//9
f 17//10 18//10 19//10
f 20//11 21//11 22//11
f 23//12 24//12 20//12
f 25//13 26//13 23//13
f 27//14 28//14 25//14
f 29//15 27//15 30//15
f 31//16 30//16 32//16
f 33//17 32//17 34//17
f 21//18 34//18 22//18
f 35//19 36//19 37//19
f 38//20 39//20 36//20
f 40//21 41//21 39//21
f 42//22 43//22 41//22
f 43//23 44//23 45//23
f 45//24 46//24 47//24
f 47//25 48//25 49//25
f 49//26 35//26 37//26
f 50//27 51//27 52//27
f 53//28 54//28 50//28
f 55//29 56//29 53//29
f 57//30 58//30 55//30
f 59//31 57//31 60//31
f 61//32 60//32 62//32
f 63//33 62//33 64//33
f 51//34 64//34 52//34
f 65//35 66//35 67//35
f 68//36 69//36 66//36
f 70//37 17//37 69//37
f 71//38 72//38 17//38
f 72//39 73//39 18//39
f 18//40 74//40 75//40
f 75//41 76//41 19//41
f 19//42 65//42 67//42
f 22//10 38//10 35//10
f 34//10 40//10 38//10
f 40//10 30//10 42//10
f 42//10 27//10 77//10
f 27//10 44//10 77//10
f 25//10 46//10 44//10
f 46//10 20//10 48//10
f 48//10 22//10 35//10
f 16//10 21//10 24//10
f 26//10 16//10 24//10
f 11//10 26//10 28//10
f 78//10 11//10 28//10
f 7//10 78//10 29//10
f 31//10 7//10 29//10
f 2//10 31//10 33//10
f 3//10 33//10 21//10
f 49//10 51//10 54//10
f 56//10 49//10 54//10
f 45//10 56//10 58//10
f 79//10 45//10 58//10
f 41//10 79//10 59//10
f 61//10 41//10 59//10
f 36//10 61//10 63//10
f 37//10 63//10 51//10
f 65//43 64//43 68//43
f 68//44 62//44 70//44
f 70//45 60//45 71//45
f 71//46 57//46 80//46
f 57//47 73//47 80//47
f 55//48 74//48 73//48
f 53//49 76//49 74//49
f 50//50 65//50 76//50
f 1//1 4//1 2//1
f 4//51 6//51 5//51
f 6//52 8//52 7//52
f 8//4 14//4 9//4
f 9//5 14//5 10//5
f 11//6 10//6 12//6
f 6//7 4//7 12//7
f 1//53 15//53 12//53
f 12//7 10//7 6//7
f 14//54 8//54 6//54
f 4//7 1//7 12//7
f 13//8 12//8 15//8
f 16//9 15//9 1//9
f 19//10 67//10 66//10
f 66//10 69//10 17//10
f 17//10 72//10 18//10
f 18//10 75//10 19//10
f 19//10 66//10 17//10
f 20//11 24//11 21//11
f 23//12 26//12 24//12
f 25//13 28//13 26//13
f 27//14 78//14 28//14
f 29//15 78//15 27//15
f 31//16 29//16 30//16
f 33//17 31//17 32//17
f 21//18 33//18 34//18
f 35//19 38//19 36//19
f 38//20 40//20 39//20
f 40//21 42//21 41//21
f 42//22 77//22 43//22
f 43//23 77//23 44//23
f 45//24 44//24 46//24
f 47//25 46//25 48//25
f 49//26 48//26 35//26
f 50//27 54//27 51//27
f 53//28 56//28 54//28
f 55//29 58//29 56//29
f 57//30 79//30 58//30
f 59//31 79//31 57//31
f 61//32 59//32 60//32
f 63//33 61//33 62//33
f 51//34 63//34 64//34
f 65//35 68//35 66//35
f 68//36 70//36 69//36
f 70//37 71//37 17//37
f 71//38 80//38 72//38
f 72//39 80//39 73//39
f 18//40 73//40 74//40
f 75//41 74//41 76//41
f 19//42 76//42 65//42
f 22//10 34//10 38//10
f 34//10 32//10 40//10
f 40//10 32//10 30//10
f 42//10 30//10 27//10
f 27//10 25//10 44//10
f 25//10 23//10 46//10
f 46//10 23//10 20//10
f 48//10 20//10 22//10
f 16//10 3//10 21//10
f 26//10 13//10 16//10
f 11//10 13//10 26//10
f 78//10 9//10 11//10
f 7//10 9//10 78//10
f 31//10 5//10 7//10
f 2//10 5//10 31//10
f 3//10 2//10 33//10
f 49//10 37//10 51//10
f 56//10 47//10 49//10
f 45//10 47//10 56//10
f 79//10 43//10 45//10
f 41//10 43//10 79//10
f 61//10 39//10 41//10
f 36//10 39//10 61//10
f 37//10 36//10 63//10
f 65//43 52//43 64//43
f 68//44 64//44 62//44
f 70//45 62//45 60//45
f 71//46 60//46 57//46
f 57//47 55//47 73//47
f 55//48 53//48 74//48
f 53//49 50//49 76//49
f 50//50 52//50 65//50
