# Blender v2.76 (sub 0) OBJ File: ''
# www.blender.org
mtllib sphere.mtl
o sphere1_default
v 0.382683 0.923880 0.000000
v 0.653281 0.707107 0.270598
v 0.707107 0.707107 0.000000
v 0.653281 0.707107 -0.270598
v 0.353553 0.923880 -0.146447
v 0.000000 1.000000 0.000000
v 0.353553 0.923880 0.146447
v 0.270598 0.923880 0.270598
v 0.270598 0.707107 0.653282
v 0.500000 0.707107 0.500000
v 0.146447 0.923880 0.353553
v 0.000000 0.923880 0.382683
v -0.270598 0.707107 0.653282
v 0.000000 0.707107 0.707107
v -0.146447 0.923880 0.353553
v -0.270598 0.923880 0.270598
v -0.653281 0.707107 0.270598
v -0.500000 0.707107 0.500000
v -0.353553 0.923880 0.146447
v -0.382683 0.923880 0.000000
v -0.653281 0.707107 -0.270598
v -0.707107 0.707107 0.000000
v -0.353553 0.923880 -0.146447
v -0.270598 0.923880 -0.270598
v -0.270598 0.707107 -0.653281
v -0.500000 0.707107 -0.500000
v -0.146447 0.923880 -0.353553
v -0.000000 0.923880 -0.382683
v 0.270598 0.707107 -0.653281
v -0.000000 0.707107 -0.707107
v 0.146447 0.923880 -0.353553
v 0.270598 0.923880 -0.270598
v 0.500000 0.707107 -0.500000
v 0.923880 0.382683 0.000000
v 0.653281 0.382683 0.653281
v 0.853553 0.382683 0.353553
v 0.000000 0.382683 0.923880
v 0.353553 0.382683 0.853553
v -0.653281 0.382683 0.653281
v -0.353553 0.382683 0.853553
v -0.923880 0.382683 0.000000
v -0.853553 0.382683 0.353553
v -0.653281 0.382683 -0.653281
v -0.853553 0.382683 -0.353553
v -0.000000 0.382683 -0.923880
v -0.353553 0.382683 -0.853553
v 0.653281 0.382683 -0.653281
v 0.353553 0.382683 -0.853553
v 0.853553 0.382683 -0.353553
v 0.923880 -0.000000 0.382683
v 1.000000 0.000000 0.000000
v 0.923880 0.000000 -0.382683
v 0.382683 -0.000000 0.923880
v 0.707107 -0.000000 0.707107
v -0.382683 -0.000000 0.923880
v 0.000000 -0.000000 1.000000
v -0.923880 -0.000000 0.382683
v -0.707107 -0.000000 0.707107
v -0.923880 0.000000 -0.382683
v -1.000000 0.000000 0.000000
v -0.382683 0.000000 -0.923880
v -0.707107 0.000000 -0.707107
v 0.382683 0.000000 -0.923880
v -0.000000 0.000000 -1.000000
v 0.707107 0.000000 -0.707107
v 0.923880 -0.382683 -0.000000
v 0.653281 -0.382683 0.653281
v 0.853553 -0.382683 0.353553
v 0.000000 -0.382683 0.923880
v 0.353553 -0.382683 0.853553
v -0.653281 -0.382683 0.653281
v -0.353553 -0.382683 0.853553
v -0.923880 -0.382683 -0.000000
v -0.853553 -0.382683 0.353553
v -0.653281 -0.382683 -0.653281
v -0.853553 -0.382683 -0.353553
v -0.000000 -0.382683 -0.923880
v -0.353553 -0.382683 -0.853553
v 0.653281 -0.382683 -0.653281
v 0.353553 -0.382683 -0.853553
v 0.853553 -0.382683 -0.353553
v 0.653281 -0.707107 0.270598
v 0.707107 -0.707107 -0.000000
v 0.653281 -0.707107 -0.270598
v 0.270598 -0.707107 0.653281
v 0.500000 -0.707107 0.500000
v -0.270598 -0.707107 0.653281
v 0.000000 -0.707107 0.707107
v -0.653281 -0.707107 0.270598
v -0.500000 -0.707107 0.500000
v -0.653281 -0.707107 -0.270598
v -0.707107 -0.707107 -0.000000
v -0.270598 -0.707107 -0.653282
v -0.500000 -0.707107 -0.500000
v 0.270598 -0.707107 -0.653282
v -0.000000 -0.707107 -0.707107
v 0.500000 -0.707107 -0.500000
v 0.382683 -0.923880 -0.000000
v 0.270598 -0.923880 0.270598
v 0.353553 -0.923880 0.146447
v 0.000000 -0.923880 0.382683
v 0.146447 -0.923880 0.353553
v -0.270598 -0.923880 0.270598
v -0.146447 -0.923880 0.353553
v -0.382683 -0.923880 -0.000000
v -0.353553 -0.923880 0.146447
v -0.270598 -0.923880 -0.270598
v -0.353553 -0.923880 -0.146447
v -0.000000 -0.923880 -0.382683
v -0.146447 -0.923880 -0.353553
v 0.270598 -0.923880 -0.270598
v 0.146447 -0.923880 -0.353553
v 0.353553 -0.923880 -0.146447
v 0.000000 -1.000000 -0.000000
vn 0.442500 0.896800 0.000000
vn 0.652800 0.707600 0.270400
vn 0.706600 0.707600 0.000000
vn 0.652800 0.707600 -0.270400
vn 0.353100 0.924100 -0.146300
vn 0.000000 1.000000 0.000000
vn 0.353100 0.924100 0.146300
vn 0.312900 0.896800 0.312900
vn 0.270400 0.707600 0.652800
vn 0.499600 0.707600 0.499600
vn 0.146300 0.924100 0.353100
vn -0.000000 0.896800 0.442500
vn -0.270400 0.707600 0.652800
vn 0.000000 0.707600 0.706600
vn -0.146300 0.924100 0.353100
vn -0.312900 0.896800 0.312900
vn -0.652800 0.707600 0.270400
vn -0.499600 0.707600 0.499600
vn -0.353100 0.924100 0.146300
vn -0.442500 0.896800 -0.000000
vn -0.652800 0.707600 -0.270400
vn -0.706600 0.707600 0.000000
vn -0.353100 0.924100 -0.146300
vn -0.312900 0.896800 -0.312900
vn -0.270400 0.707600 -0.652800
vn -0.499600 0.707600 -0.499600
vn -0.146300 0.924100 -0.353100
vn 0.000000 0.896800 -0.442500
vn 0.270400 0.707600 -0.652800
vn 0.000000 0.707600 -0.706600
vn 0.146300 0.924100 -0.353100
vn 0.312900 0.896800 -0.312900
vn 0.499600 0.707600 -0.499600
vn 0.923700 0.383200 0.000000
vn 0.653100 0.383200 0.653100
vn 0.853400 0.383200 0.353500
vn 0.000000 0.383200 0.923700
vn 0.353500 0.383200 0.853400
vn -0.653100 0.383200 0.653100
vn -0.353500 0.383200 0.853400
vn -0.923700 0.383200 0.000000
vn -0.853400 0.383200 0.353500
vn -0.653100 0.383200 -0.653100
vn -0.853400 0.383200 -0.353500
vn -0.000000 0.383200 -0.923700
vn -0.353500 0.383200 -0.853400
vn 0.653100 0.383200 -0.653100
vn 0.353500 0.383200 -0.853400
vn 0.853400 0.383200 -0.353500
vn 0.923900 0.000000 0.382700
vn 1.000000 0.000000 0.000000
vn 0.923900 0.000000 -0.382700
vn 0.382700 -0.000000 0.923900
vn 0.707100 -0.000000 0.707100
vn -0.382700 -0.000000 0.923900
vn 0.000000 -0.000000 1.000000
vn -0.923900 0.000000 0.382700
vn -0.707100 0.000000 0.707100
vn -0.923900 -0.000000 -0.382700
vn -1.000000 -0.000000 0.000000
vn -0.382700 0.000000 -0.923900
vn -0.707100 -0.000000 -0.707100
vn 0.382700 0.000000 -0.923900
vn 0.000000 0.000000 -1.000000
vn 0.707100 0.000000 -0.707100
vn 0.923700 -0.383200 0.000000
vn 0.653100 -0.383200 0.653100
vn 0.853400 -0.383200 0.353500
vn 0.000000 -0.383200 0.923700
vn 0.353500 -0.383200 0.853400
vn -0.653100 -0.383200 0.653100
vn -0.353500 -0.383200 0.853400
vn -0.923700 -0.383200 0.000000
vn -0.853400 -0.383200 0.353500
vn -0.653100 -0.383200 -0.653100
vn -0.853400 -0.383200 -0.353500
vn -0.000000 -0.383200 -0.923700
vn -0.353500 -0.383200 -0.853400
vn 0.653100 -0.383200 -0.653100
vn 0.353500 -0.383200 -0.853400
vn 0.853400 -0.383200 -0.353500
vn 0.652800 -0.707600 0.270400
vn 0.706600 -0.707600 -0.000000
vn 0.652800 -0.707600 -0.270400
vn 0.270400 -0.707600 0.652800
vn 0.499600 -0.707600 0.499600
vn -0.270400 -0.707600 0.652800
vn 0.000000 -0.707600 0.706600
vn -0.652800 -0.707600 0.270400
vn -0.499600 -0.707600 0.499600
vn -0.652800 -0.707600 -0.270400
vn -0.706600 -0.707600 0.000000
vn -0.270400 -0.707600 -0.652800
vn -0.499600 -0.707600 -0.499600
vn 0.270400 -0.707600 -0.652800
vn -0.000000 -0.707600 -0.706600
vn 0.499600 -0.707600 -0.499600
vn 0.442500 -0.896800 -0.000000
vn 0.312900 -0.896800 0.312900
vn 0.353100 -0.924100 0.146300
vn -0.000000 -0.896800 0.442500
vn 0.146300 -0.924100 0.353100
vn -0.312900 -0.896800 0.312900
vn -0.146300 -0.924100 0.353100
vn -0.442500 -0.896800 -0.000000
vn -0.353100 -0.924100 0.146300
vn -0.312900 -0.896800 -0.312900
vn -0.353100 -0.924100 -0.146300
vn 0.000000 -0.896800 -0.442500
vn -0.146300 -0.924100 -0.353100
vn 0.312900 -0.896800 -0.312900
vn 0.146300 -0.924100 -0.353100
vn 0.353100 -0.924100 -0.146300
vn 0.000000 -1.000000 -0.000000
usemtl default
s 1
f 1//1 2//2 3//3
f 1//1 4//4 5//5
f 1//1 6//6 7//7
f 7//7 2//2 1//1
f 7//7 6//6 8//8
f 8//8 2//2 7//7
f 8//8 9//9 10//10
f 8//8 6//6 11//11
f 11//11 9//9 8//8
f 11//11 6//6 12//12
f 12//12 9//9 11//11
f 12//12 13//13 14//14
f 12//12 6//6 15//15
f 15//15 13//13 12//12
f 15//15 6//6 16//16
f 16//16 13//13 15//15
f 16//16 17//17 18//18
f 16//16 6//6 19//19
f 19//19 17//17 16//16
f 19//19 6//6 20//20
f 20//20 17//17 19//19
f 20//20 21//21 22//22
f 20//20 6//6 23//23
f 23//23 21//21 20//20
f 23//23 6//6 24//24
f 24//24 21//21 23//23
f 24//24 25//25 26//26
f 24//24 6//6 27//27
f 27//27 25//25 24//24
f 27//27 6//6 28//28
f 28//28 25//25 27//27
f 28//28 29//29 30//30
f 28//28 6//6 31//31
f 31//31 29//29 28//28
f 31//31 6//6 32//32
f 32//32 29//29 31//31
f 32//32 4//4 33//33
f 32//32 6//6 5//5
f 5//5 4//4 32//32
f 5//5 6//6 1//1
f 3//3 4//4 1//1
f 3//3 34//34 4//4
f 2//2 34//34 3//3
f 2//2 35//35 36//36
f 10//10 2//2 8//8
f 10//10 35//35 2//2
f 9//9 35//35 10//10
f 9//9 37//37 38//38
f 14//14 9//9 12//12
f 14//14 37//37 9//9
f 13//13 37//37 14//14
f 13//13 39//39 40//40
f 18//18 13//13 16//16
f 18//18 39//39 13//13
f 17//17 39//39 18//18
f 17//17 41//41 42//42
f 22//22 17//17 20//20
f 22//22 41//41 17//17
f 21//21 41//41 22//22
f 21//21 43//43 44//44
f 26//26 21//21 24//24
f 26//26 43//43 21//21
f 25//25 43//43 26//26
f 25//25 45//45 46//46
f 30//30 25//25 28//28
f 30//30 45//45 25//25
f 29//29 45//45 30//30
f 29//29 47//47 48//48
f 33//33 29//29 32//32
f 33//33 47//47 29//29
f 4//4 34//34 49//49
f 4//4 47//47 33//33
f 34//34 50//50 51//51
f 34//34 52//52 49//49
f 36//36 34//34 2//2
f 36//36 50//50 34//34
f 35//35 50//50 36//36
f 35//35 53//53 54//54
f 38//38 35//35 9//9
f 38//38 53//53 35//35
f 37//37 53//53 38//38
f 37//37 55//55 56//56
f 40//40 37//37 13//13
f 40//40 55//55 37//37
f 39//39 55//55 40//40
f 39//39 57//57 58//58
f 42//42 39//39 17//17
f 42//42 57//57 39//39
f 41//41 57//57 42//42
f 41//41 59//59 60//60
f 44//44 41//41 21//21
f 44//44 59//59 41//41
f 43//43 59//59 44//44
f 43//43 61//61 62//62
f 46//46 43//43 25//25
f 46//46 61//61 43//43
f 45//45 61//61 46//46
f 45//45 63//63 64//64
f 48//48 45//45 29//29
f 48//48 63//63 45//45
f 47//47 63//63 48//48
f 47//47 52//52 65//65
f 49//49 47//47 4//4
f 49//49 52//52 47//47
f 51//51 52//52 34//34
f 51//51 66//66 52//52
f 50//50 66//66 51//51
f 50//50 67//67 68//68
f 54//54 50//50 35//35
f 54//54 67//67 50//50
f 53//53 67//67 54//54
f 53//53 69//69 70//70
f 56//56 53//53 37//37
f 56//56 69//69 53//53
f 55//55 69//69 56//56
f 55//55 71//71 72//72
f 58//58 55//55 39//39
f 58//58 71//71 55//55
f 57//57 71//71 58//58
f 57//57 73//73 74//74
f 60//60 57//57 41//41
f 60//60 73//73 57//57
f 59//59 73//73 60//60
f 59//59 75//75 76//76
f 62//62 59//59 43//43
f 62//62 75//75 59//59
f 61//61 75//75 62//62
f 61//61 77//77 78//78
f 64//64 61//61 45//45
f 64//64 77//77 61//61
f 63//63 77//77 64//64
f 63//63 79//79 80//80
f 65//65 63//63 47//47
f 65//65 79//79 63//63
f 52//52 66//66 81//81
f 52//52 79//79 65//65
f 66//66 82//82 83//83
f 66//66 84//84 81//81
f 68//68 66//66 50//50
f 68//68 82//82 66//66
f 67//67 82//82 68//68
f 67//67 85//85 86//86
f 70//70 67//67 53//53
f 70//70 85//85 67//67
f 69//69 85//85 70//70
f 69//69 87//87 88//88
f 72//72 69//69 55//55
f 72//72 87//87 69//69
f 71//71 87//87 72//72
f 71//71 89//89 90//90
f 74//74 71//71 57//57
f 74//74 89//89 71//71
f 73//73 89//89 74//74
f 73//73 91//91 92//92
f 76//76 73//73 59//59
f 76//76 91//91 73//73
f 75//75 91//91 76//76
f 75//75 93//93 94//94
f 78//78 75//75 61//61
f 78//78 93//93 75//75
f 77//77 93//93 78//78
f 77//77 95//95 96//96
f 80//80 77//77 63//63
f 80//80 95//95 77//77
f 79//79 95//95 80//80
f 79//79 84//84 97//97
f 81//81 79//79 52//52
f 81//81 84//84 79//79
f 83//83 84//84 66//66
f 83//83 98//98 84//84
f 82//82 98//98 83//83
f 82//82 99//99 100//100
f 86//86 82//82 67//67
f 86//86 99//99 82//82
f 85//85 99//99 86//86
f 85//85 101//101 102//102
f 88//88 85//85 69//69
f 88//88 101//101 85//85
f 87//87 101//101 88//88
f 87//87 103//103 104//104
f 90//90 87//87 71//71
f 90//90 103//103 87//87
f 89//89 103//103 90//90
f 89//89 105//105 106//106
f 92//92 89//89 73//73
f 92//92 105//105 89//89
f 91//91 105//105 92//92
f 91//91 107//107 108//108
f 94//94 91//91 75//75
f 94//94 107//107 91//91
f 93//93 107//107 94//94
f 93//93 109//109 110//110
f 96//96 93//93 77//77
f 96//96 109//109 93//93
f 95//95 109//109 96//96
f 95//95 111//111 112//112
f 97//97 95//95 79//79
f 97//97 111//111 95//95
f 84//84 98//98 113//113
f 84//84 111//111 97//97
f 98//98 114//114 113//113
f 100//100 98//98 82//82
f 100//100 114//114 98//98
f 99//99 114//114 100//100
f 102//102 99//99 85//85
f 102//102 114//114 99//99
f 101//101 114//114 102//102
f 104//104 101//101 87//87
f 104//104 114//114 101//101
f 103//103 114//114 104//104
f 106//106 103//103 89//89
f 106//106 114//114 103//103
f 105//105 114//114 106//106
f 108//108 105//105 91//91
f 108//108 114//114 105//105
f 107//107 114//114 108//108
f 110//110 107//107 93//93
f 110//110 114//114 107//107
f 109//109 114//114 110//110
f 112//112 109//109 95//95
f 112//112 114//114 109//109
f 111//111 114//114 112//112
f 113//113 111//111 84//84
f 113//113 114//114 111//111
